# Blender 4.2.2 LTS
# www.blender.org
o Cube.002
v -0.003704 -0.042791 -1.287871
v -0.003704 0.348403 -1.273813
v -0.003704 -0.042791 -1.361763
v -0.003704 0.348403 -1.351722
v 0.003704 -0.042791 -1.287871
v 0.003704 0.348403 -1.273813
v 0.003704 -0.042791 -1.361763
v 0.003704 0.348403 -1.351722
v -0.003704 0.090954 -1.121187
v -0.003704 0.090954 -1.263360
v 0.003704 0.090954 -1.263360
v 0.003704 0.090954 -1.121187
v 0.104488 -0.173559 0.389043
v 0.109926 0.058912 0.389043
v 0.109926 0.117496 -0.075261
v 0.101101 -0.156293 0.519583
v 0.053498 -0.099056 0.674532
v 0.053498 -0.144796 0.674532
v 0.000000 -0.184819 -0.075261
v 0.000000 0.199999 -0.075261
v 0.000000 -0.184819 0.389043
v 0.000000 0.065103 0.389043
v 0.000000 -0.174206 0.519583
v 0.000000 -0.034659 0.519583
v 0.000000 -0.144796 0.674532
v 0.178446 -0.145801 0.055187
v 0.139413 -0.110043 0.389043
v 0.127521 -0.108527 0.519583
v 0.065010 -0.121926 0.674532
v 0.000000 -0.121926 0.674532
v 0.006529 0.122612 -1.282594
v 0.000000 0.123686 0.210419
v 0.000000 -0.184819 0.210419
v 0.028669 -0.003181 -0.556666
v 0.030161 0.121044 -0.556666
v 0.000000 -0.007987 -0.556666
v 0.000000 0.123686 -0.556666
v 0.038251 0.023928 -0.556666
v 0.006206 0.072076 -1.282594
v 0.000000 0.070121 -1.282594
v 0.000000 0.123686 -1.282594
v 0.008281 0.083105 -1.282594
v 0.131627 -0.060337 0.427250
v 0.007818 0.093536 -1.282594
v 0.131627 -0.049963 0.210419
v 0.036115 0.049571 -0.556666
v 0.119340 0.044848 -0.075261
v 0.108778 -0.060762 0.519583
v 0.000000 -0.099056 0.674532
v 0.007088 0.109998 -1.282594
v 0.119340 0.044848 0.210419
v 0.032744 0.090038 -0.556666
v 0.104488 -0.173559 -0.075261
v 0.104488 -0.173559 0.210419
v 0.131627 -0.049963 -0.075261
v 0.139413 -0.110043 0.210419
v 0.152853 -0.049963 0.210419
v 0.140566 0.044848 0.210419
v 0.109926 0.117496 0.130005
v 0.000000 0.199999 0.130005
v 0.000000 -0.184819 0.130005
v 0.119340 0.044848 0.130005
v 0.104488 -0.173559 0.130005
v 0.141190 -0.110043 0.130005
v 0.152853 -0.049963 0.130005
v 0.140566 0.044848 0.130005
v 0.030796 0.198265 -0.075261
v 0.029273 -0.181665 0.389043
v 0.028324 -0.169188 0.519583
v 0.014988 -0.144796 0.674532
v 0.030796 0.063368 0.389043
v 0.018213 -0.121926 0.674532
v 0.008450 0.122946 -0.556666
v 0.008032 -0.006640 -0.556666
v 0.001829 0.123385 -1.282594
v 0.001739 0.070669 -1.282594
v 0.030475 -0.041972 0.519583
v 0.014988 -0.099056 0.674532
v 0.030796 0.198265 0.130005
v 0.029273 -0.181665 -0.075261
v 0.029273 -0.181665 0.210419
v 0.029273 -0.181665 0.130005
v 0.109926 0.117496 0.006568
v 0.000000 0.199999 0.006568
v 0.119340 0.044848 0.006568
v 0.030796 0.198265 0.006568
v 0.066693 0.197429 -0.075261
v 0.117930 0.160822 -0.075261
v 0.117930 0.160822 0.006568
v 0.066693 0.197429 0.006568
v 0.030796 0.121952 0.210419
v 0.109926 0.117496 0.210419
v 0.031103 0.117123 0.006568
v 0.027752 0.120543 0.130005
v 0.030475 -0.030551 0.519583
v 0.000000 -0.023238 0.519583
v 0.014988 -0.095733 0.674532
v 0.000000 -0.095733 0.674532
v 0.099778 -0.057553 -0.263874
v 0.123388 -0.090222 -0.200445
v 0.111784 -0.117111 -0.193255
v 0.178446 -0.159613 0.130005
v 0.178446 -0.159304 -0.072813
v 0.161472 -0.049963 0.210419
v 0.161472 -0.049963 0.130005
v 0.161472 -0.049963 -0.075261
v 0.178446 -0.063668 0.130005
v 0.178446 -0.077923 -0.071240
v 0.178446 -0.129868 -0.155984
v 0.161652 -0.090222 -0.200445
v 0.161472 -0.057553 -0.263874
v 0.178446 -0.086393 0.053465
v 0.178446 -0.159613 0.069747
v 0.178446 -0.159613 -0.075261
v 0.178446 -0.063668 0.067422
v 0.178446 -0.063668 -0.075261
v 0.161652 -0.117111 -0.193255
v 0.269095 -0.145801 0.055187
v 0.269095 -0.159304 -0.072813
v 0.269095 -0.077923 -0.071240
v 0.283594 -0.129868 -0.155984
v 0.269095 -0.086393 0.053465
v 0.086588 -0.133334 -0.188917
v 0.178446 -0.133334 -0.188917
v 0.112195 -0.073998 -0.204783
v 0.178446 -0.073998 -0.204783
v 0.111784 -0.117111 -0.203674
v 0.161652 -0.117111 -0.203674
v 0.123388 -0.090222 -0.210864
v 0.161652 -0.090222 -0.210864
v 0.141190 -0.063668 0.130005
v 0.178446 -0.114163 0.068645
v 0.283594 -0.123543 -0.072122
v 0.283594 -0.114010 0.054266
v 0.178446 -0.115244 0.054301
v 0.178446 -0.109534 0.130005
v -0.104488 -0.173559 0.389043
v -0.109926 0.058912 0.389043
v -0.109926 0.117496 -0.075261
v -0.101101 -0.156293 0.519583
v -0.053498 -0.099056 0.674532
v -0.053498 -0.144796 0.674532
v -0.178446 -0.145801 0.055187
v -0.139413 -0.110043 0.389043
v -0.127521 -0.108527 0.519583
v -0.065010 -0.121926 0.674532
v -0.006529 0.122612 -1.282594
v -0.028669 -0.003181 -0.556666
v -0.030161 0.121044 -0.556666
v -0.038251 0.023928 -0.556666
v -0.006206 0.072076 -1.282594
v -0.008281 0.083105 -1.282594
v -0.131627 -0.060337 0.427250
v -0.007818 0.093536 -1.282594
v -0.131627 -0.049963 0.210419
v -0.036115 0.049571 -0.556666
v -0.119340 0.044848 -0.075261
v -0.108778 -0.060762 0.519583
v -0.007088 0.109998 -1.282594
v -0.119340 0.044848 0.210419
v -0.032744 0.090038 -0.556666
v -0.104488 -0.173559 -0.075261
v -0.104488 -0.173559 0.210419
v -0.131627 -0.049963 -0.075261
v -0.139413 -0.110043 0.210419
v -0.152853 -0.049963 0.210419
v -0.140566 0.044848 0.210419
v -0.109926 0.117496 0.130005
v -0.119340 0.044848 0.130005
v -0.104488 -0.173559 0.130005
v -0.141190 -0.110043 0.130005
v -0.152853 -0.049963 0.130005
v -0.140566 0.044848 0.130005
v -0.030796 0.198265 -0.075261
v -0.029273 -0.181665 0.389043
v -0.028324 -0.169188 0.519583
v -0.014988 -0.144796 0.674532
v -0.030796 0.063368 0.389043
v -0.018213 -0.121926 0.674532
v -0.008450 0.122946 -0.556666
v -0.008032 -0.006640 -0.556666
v -0.001829 0.123385 -1.282594
v -0.001739 0.070669 -1.282594
v -0.030475 -0.041972 0.519583
v -0.014988 -0.099056 0.674532
v -0.030796 0.198265 0.130005
v -0.029273 -0.181665 -0.075261
v -0.029273 -0.181665 0.210419
v -0.029273 -0.181665 0.130005
v -0.109926 0.117496 0.006568
v -0.119340 0.044848 0.006568
v -0.030796 0.198265 0.006568
v -0.066693 0.197429 -0.075261
v -0.117930 0.160822 -0.075261
v -0.117930 0.160822 0.006568
v -0.066693 0.197429 0.006568
v -0.030796 0.121952 0.210419
v -0.109926 0.117496 0.210419
v -0.031103 0.117123 0.006568
v -0.027752 0.120543 0.130005
v -0.030475 -0.030551 0.519583
v -0.014988 -0.095733 0.674532
v -0.099778 -0.057553 -0.263874
v -0.123388 -0.090222 -0.200445
v -0.111784 -0.117111 -0.193255
v -0.178446 -0.159613 0.130005
v -0.178446 -0.159304 -0.072813
v -0.161472 -0.049963 0.210419
v -0.161472 -0.049963 0.130005
v -0.161472 -0.049963 -0.075261
v -0.178446 -0.063668 0.130005
v -0.178446 -0.077923 -0.071240
v -0.178446 -0.129868 -0.155984
v -0.161652 -0.090222 -0.200445
v -0.161472 -0.057553 -0.263874
v -0.178446 -0.086393 0.053465
v -0.178446 -0.159613 0.069747
v -0.178446 -0.159613 -0.075261
v -0.178446 -0.063668 0.067422
v -0.178446 -0.063668 -0.075261
v -0.161652 -0.117111 -0.193255
v -0.269095 -0.145801 0.055187
v -0.269095 -0.159304 -0.072813
v -0.269095 -0.077923 -0.071240
v -0.283594 -0.129868 -0.155984
v -0.269095 -0.086393 0.053465
v -0.086588 -0.133334 -0.188917
v -0.178446 -0.133334 -0.188917
v -0.112195 -0.073998 -0.204783
v -0.178446 -0.073998 -0.204783
v -0.111784 -0.117111 -0.203674
v -0.161652 -0.117111 -0.203674
v -0.123388 -0.090222 -0.210864
v -0.161652 -0.090222 -0.210864
v -0.141190 -0.063668 0.130005
v -0.178446 -0.114163 0.068645
v -0.283594 -0.123543 -0.072122
v -0.283594 -0.114010 0.054266
v -0.178446 -0.115244 0.054301
v -0.178446 -0.109534 0.130005
v 0.246443 0.064287 -0.697039
v 0.246443 0.072382 -0.697039
v 0.246443 0.064287 -0.796298
v 0.234770 0.064287 -0.796298
v 0.234770 0.064287 -0.697039
v 0.234770 0.072382 -0.697039
v 0.234770 0.159743 -0.821611
v 0.234770 0.159743 -0.764202
v 0.234770 -0.013232 -0.783697
v 0.234770 -0.013232 -0.722718
v 0.032954 0.072382 -0.697039
v 0.032954 0.064287 -0.796298
v 0.032954 0.064287 -0.697039
v -0.246443 0.064287 -0.697039
v -0.246443 0.072382 -0.697039
v -0.246443 0.064287 -0.796298
v -0.234770 0.064287 -0.796298
v -0.234770 0.064287 -0.697039
v -0.234770 0.072382 -0.697039
v -0.234770 0.159743 -0.821611
v -0.234770 0.159743 -0.764202
v -0.234770 -0.013232 -0.783697
v -0.234770 -0.013232 -0.722718
v -0.032954 0.072382 -0.697039
v -0.032954 0.064287 -0.796298
v -0.032954 0.064287 -0.697039
v -0.102452 0.010255 -1.013192
v -0.102452 0.047737 -0.998321
v -0.102452 0.155859 -1.380179
v -0.102452 0.193340 -1.365308
v -0.116926 0.107324 -1.257850
v -0.116926 0.058790 -1.135521
v -0.116926 0.096271 -1.120650
v -0.116926 0.144806 -1.242979
v -0.102452 0.058790 -1.135521
v -0.102452 0.107324 -1.257850
v -0.102452 0.144806 -1.242979
v -0.102452 0.096271 -1.120650
v 0.000000 0.200835 0.007969
v 0.000000 0.302593 0.007969
v 0.008660 0.200835 0.012969
v 0.008660 0.302593 0.012969
v 0.008660 0.200834 0.022969
v 0.008660 0.302593 0.022969
v 0.000000 0.200834 0.027969
v 0.000000 0.302593 0.027969
v -0.008660 0.200834 0.022969
v -0.008660 0.302593 0.022969
v -0.008660 0.200835 0.012969
v -0.008660 0.302593 0.012969
v 0.399784 0.303612 0.932101
v -0.477524 0.303612 -0.865211
v 0.477524 0.303612 0.894155
v -0.399784 0.303612 -0.903157
v -0.380045 0.303612 -0.665509
v -0.282566 0.303612 -0.465808
v -0.185088 0.303612 -0.266107
v -0.087609 0.303612 -0.066405
v 0.009870 0.303612 0.133296
v 0.107348 0.303612 0.332997
v 0.204827 0.303612 0.532699
v 0.302306 0.303612 0.732400
v 0.302306 0.314433 0.732400
v 0.204827 0.314433 0.532699
v 0.107348 0.314433 0.332997
v 0.009870 0.314433 0.133296
v -0.087609 0.314433 -0.066405
v -0.185088 0.314433 -0.266107
v -0.282566 0.314433 -0.465808
v -0.380045 0.314433 -0.665509
v 0.380045 0.303612 0.694454
v 0.282566 0.303612 0.494752
v 0.185088 0.303612 0.295051
v 0.087609 0.303612 0.095350
v -0.009870 0.303612 -0.104352
v -0.107348 0.303612 -0.304053
v -0.204827 0.303612 -0.503754
v -0.302306 0.303612 -0.703456
v -0.302306 0.314433 -0.703456
v -0.204827 0.314433 -0.503754
v -0.107348 0.314433 -0.304053
v -0.009870 0.314433 -0.104352
v 0.087609 0.314433 0.095350
v 0.185088 0.314433 0.295051
v 0.282566 0.314433 0.494752
v 0.380045 0.314433 0.694454
vn -1.0000 -0.0000 -0.0000
vn -0.0000 -0.3246 -0.9458
vn 1.0000 -0.0000 -0.0000
vn -0.0000 0.5100 0.8602
vn -0.0000 -1.0000 -0.0000
vn -0.0000 1.0000 -0.0000
vn -0.0000 -0.7800 0.6258
vn -0.0000 0.5926 -0.8055
vn 0.9908 0.1284 0.0421
vn 0.1396 -0.9836 0.1144
vn 0.1071 -0.9942 -0.0000
vn 0.1140 -0.9841 0.1364
vn 0.1153 0.7810 0.6137
vn 0.9950 -0.0000 0.0995
vn 0.0534 0.9488 0.3112
vn -0.0000 -0.0000 1.0000
vn 0.8415 -0.4519 0.2962
vn 0.8725 -0.4810 0.0857
vn 0.8763 -0.4818 -0.0000
vn 0.0408 0.7248 0.6878
vn 0.9917 0.1285 -0.0000
vn 0.9789 0.1082 -0.1733
vn 0.0230 0.9876 -0.1556
vn 0.9545 -0.2917 -0.0615
vn 0.1125 -0.9325 -0.3433
vn 0.9968 0.0718 -0.0349
vn -0.0000 -0.9634 -0.2681
vn 0.1893 -0.9763 -0.1053
vn 0.1008 0.9949 -0.0007
vn 0.9968 0.0718 -0.0339
vn 0.9792 0.1133 -0.1682
vn 0.8490 0.3637 0.3834
vn 0.9673 0.2046 0.1498
vn 0.9903 0.1392 0.0037
vn 0.9800 0.1134 -0.1636
vn 0.9969 0.0718 -0.0328
vn 0.0803 -0.9549 -0.2857
vn 0.9406 0.2461 0.2339
vn 0.9868 0.1606 0.0220
vn 0.8710 -0.4911 0.0096
vn 0.1853 -0.9827 -0.0000
vn 0.9865 0.1278 -0.1020
vn 0.0562 0.9984 -0.0000
vn 0.9953 0.0728 0.0640
vn 0.1008 0.9949 -0.0002
vn 0.1892 -0.9762 -0.1063
vn 0.1124 -0.9316 -0.3456
vn 0.0622 0.9857 -0.1567
vn 0.1504 0.9347 0.3220
vn 0.1111 0.7525 0.6492
vn 0.1133 -0.9781 0.1747
vn 0.1400 -0.9863 0.0877
vn 0.9704 -0.1793 -0.1621
vn 0.5813 0.8137 -0.0000
vn 0.9834 -0.1817 -0.0000
vn 0.0233 0.9997 -0.0000
vn 0.4598 0.8710 -0.1731
vn 0.9998 -0.0172 0.0138
vn 0.0465 0.9989 -0.0096
vn 0.9985 -0.0391 -0.0371
vn 0.0166 0.9998 -0.0136
vn 0.1450 0.9015 0.4078
vn -0.0000 -0.0000 -1.0000
vn 0.6282 0.7780 -0.0000
vn -0.0000 0.9992 -0.0402
vn 0.8675 -0.4059 -0.2876
vn 0.7016 0.7114 -0.0401
vn -0.0000 -0.9427 -0.3336
vn -0.0000 0.0290 0.9996
vn 0.9526 0.3032 -0.0229
vn 0.9298 0.3681 -0.0016
vn -0.0000 -0.9945 0.1049
vn -0.0000 0.8526 -0.5226
vn -0.0000 0.9977 0.0678
vn -0.0000 -0.2583 -0.9661
vn -0.9182 0.3962 -0.0000
vn -0.0000 -0.9858 0.1680
vn 0.9262 -0.3760 0.0284
vn 0.9184 -0.3941 0.0357
vn -0.9908 0.1284 0.0421
vn -0.1396 -0.9836 0.1144
vn -0.1071 -0.9942 -0.0000
vn -0.1140 -0.9841 0.1364
vn -0.1153 0.7810 0.6137
vn -0.9950 -0.0000 0.0995
vn -0.0534 0.9488 0.3112
vn -0.8415 -0.4519 0.2962
vn -0.8725 -0.4810 0.0857
vn -0.8763 -0.4818 -0.0000
vn -0.0408 0.7248 0.6878
vn -0.9917 0.1285 -0.0000
vn -0.9789 0.1082 -0.1733
vn -0.0230 0.9876 -0.1556
vn -0.9545 -0.2917 -0.0615
vn -0.1125 -0.9325 -0.3433
vn -0.9968 0.0718 -0.0349
vn -0.1893 -0.9763 -0.1053
vn -0.1008 0.9949 -0.0007
vn -0.9968 0.0718 -0.0339
vn -0.9792 0.1133 -0.1682
vn -0.8490 0.3637 0.3834
vn -0.9673 0.2046 0.1498
vn -0.9903 0.1392 0.0037
vn -0.9800 0.1134 -0.1636
vn -0.9969 0.0718 -0.0328
vn -0.0803 -0.9549 -0.2857
vn -0.9406 0.2461 0.2339
vn -0.9868 0.1606 0.0220
vn -0.8710 -0.4911 0.0096
vn -0.1853 -0.9827 -0.0000
vn -0.9865 0.1278 -0.1020
vn -0.0562 0.9984 -0.0000
vn -0.9953 0.0728 0.0640
vn -0.1008 0.9949 -0.0002
vn -0.1892 -0.9762 -0.1063
vn -0.1124 -0.9316 -0.3456
vn -0.0622 0.9857 -0.1567
vn -0.1504 0.9347 0.3220
vn -0.1111 0.7525 0.6492
vn -0.1133 -0.9781 0.1747
vn -0.1400 -0.9863 0.0877
vn -0.9704 -0.1793 -0.1621
vn -0.5813 0.8137 -0.0000
vn -0.9834 -0.1817 -0.0000
vn -0.0233 0.9997 -0.0000
vn -0.4598 0.8710 -0.1731
vn -0.9998 -0.0172 0.0138
vn -0.0465 0.9989 -0.0096
vn -0.9985 -0.0391 -0.0371
vn -0.0166 0.9998 -0.0136
vn -0.1450 0.9015 0.4078
vn -0.6282 0.7780 -0.0000
vn -0.8675 -0.4059 -0.2876
vn -0.7016 0.7114 -0.0401
vn -0.9526 0.3032 -0.0229
vn -0.9298 0.3681 -0.0016
vn 0.9182 0.3962 -0.0000
vn -0.9262 -0.3760 0.0284
vn -0.9184 -0.3941 0.0357
vn 0.9889 -0.1489 -0.0000
vn -0.0000 0.6095 0.7928
vn -0.0000 -0.2563 -0.9666
vn 0.9923 0.1235 -0.0064
vn -0.0000 -0.3145 0.9493
vn -0.0000 -0.1605 -0.9870
vn -0.0000 0.9967 -0.0813
vn -0.9889 -0.1489 -0.0000
vn -0.9923 0.1235 -0.0064
vn -0.9940 0.0403 -0.1016
vn -0.0000 -0.9295 -0.3688
vn -0.0000 0.9295 0.3688
vn -0.9940 -0.0403 0.1016
vn 0.5000 -0.0000 -0.8660
vn 0.5000 -0.0000 0.8660
vn -0.5000 -0.0000 0.8660
vn -0.5000 -0.0000 -0.8660
vn -0.8987 -0.0000 0.4387
vn 0.8987 -0.0000 -0.4387
vn 0.0213 0.9988 0.0437
vn -0.0213 0.9988 -0.0437
s 0
f 9//1 2//1 4//1 10//1
f 10//2 4//2 8//2 11//2
f 11//3 8//3 6//3 12//3
f 12//4 6//4 2//4 9//4
f 3//5 7//5 5//5 1//5
f 8//6 4//6 2//6 6//6
f 5//7 12//7 9//7 1//7
f 7//3 11//3 12//3 5//3
f 3//8 10//8 11//8 7//8
f 1//1 9//1 10//1 3//1
f 51//9 92//9 14//9
f 68//10 13//10 16//10 69//10
f 81//11 54//11 13//11 68//11
f 69//12 16//12 18//12 70//12
f 71//13 22//13 24//13 77//13
f 78//14 77//14 95//14 97//14
f 91//15 32//15 22//15 71//15
f 70//16 72//16 30//16 25//16
f 16//17 28//17 29//17 18//17
f 13//18 27//18 28//18 16//18
f 54//19 56//19 27//19 13//19
f 79//20 60//20 32//20 91//20
f 82//11 63//11 54//11 81//11
f 62//21 59//21 92//21 51//21
f 55//22 99//22 38//22 46//22
f 73//23 67//23 87//23
f 38//24 34//24 39//24 42//24
f 80//25 19//25 36//25 74//25
f 46//26 38//26 42//26 44//26
f 125//27 99//27 111//27 126//27
f 74//28 36//28 40//28 76//28
f 73//29 35//29 31//29 75//29
f 52//30 46//30 44//30 50//30
f 47//31 55//31 46//31 52//31
f 62//6 51//6 58//6 66//6
f 72//16 78//16 49//16 30//16
f 28//32 48//32 17//32 29//32
f 27//33 43//33 48//33 28//33
f 56//34 45//34 43//34 27//34
f 15//35 47//35 52//35 35//35
f 35//36 52//36 50//36 31//36
f 53//37 123//37 124//37 114//37
f 43//38 14//38 48//38
f 45//39 51//39 14//39 43//39
f 63//40 64//40 56//40 54//40
f 57//5 45//5 65//5
f 65//21 66//21 58//21 57//21
f 63//41 53//41 114//41 113//41 102//41
f 51//16 45//16 57//16 58//16
f 55//42 47//42 66//42 65//42
f 47//6 85//6 62//6 66//6
f 85//21 83//21 59//21 62//21
f 80//11 53//11 63//11 82//11
f 86//43 84//43 60//43 79//43
f 56//44 64//44 131//44 45//44
f 19//11 80//11 82//11 61//11
f 29//16 17//16 78//16 72//16
f 37//45 73//45 75//45 41//45
f 34//46 74//46 76//46 39//46
f 53//47 80//47 74//47 34//47 123//47
f 20//48 67//48 73//48 37//48
f 61//11 82//11 81//11 33//11
f 18//16 29//16 72//16 70//16
f 92//15 91//15 71//15 14//15
f 48//49 77//49 78//49 17//49
f 14//50 71//50 77//50 48//50
f 23//51 69//51 70//51 25//51
f 33//11 81//11 68//11 21//11
f 21//52 68//52 69//52 23//52
f 88//53 15//53 35//53
f 67//43 20//43 84//43 86//43
f 47//21 15//21 83//21 85//21
f 88//54 87//54 90//54 89//54
f 86//16 93//16 90//16
f 83//55 15//55 88//55 89//55
f 67//56 86//56 90//56 87//56
f 88//57 35//57 73//57 87//57
f 94//58 93//58 86//58 79//58
f 59//59 94//59 91//59 92//59
f 94//60 79//60 91//60
f 89//16 93//16 83//16
f 83//61 93//61 94//61 59//61
f 90//16 93//16 89//16
f 95//62 96//62 98//62 97//62
f 49//16 78//16 97//16 98//16
f 24//1 49//1 98//1 96//1
f 77//63 24//63 96//63 95//63
f 107//64 115//64 116//64 106//64 105//64
f 99//65 55//65 106//65 111//65
f 125//66 123//66 34//66 38//66 99//66
f 116//3 124//3 126//3
f 105//64 104//64 107//64
f 102//3 113//3 132//3 136//3
f 111//67 106//67 116//67 126//67
f 55//6 65//6 105//6 106//6
f 110//3 117//3 128//3 130//3
f 65//6 45//6 104//6 105//6
f 102//16 64//16 63//16
f 103//68 109//68 121//68 119//68
f 112//69 135//69 134//69 122//69
f 103//3 26//3 113//3 114//3
f 112//3 108//3 116//3 115//3
f 109//3 103//3 114//3 124//3
f 108//3 109//3 124//3 116//3
f 26//3 135//3 132//3 113//3
f 121//70 120//70 133//70
f 122//71 134//71 133//71 120//71
f 26//72 103//72 119//72 118//72
f 109//73 108//73 120//73 121//73
f 108//74 112//74 122//74 120//74
f 101//75 117//75 124//75 123//75
f 100//75 101//75 123//75 125//75
f 117//75 110//75 126//75 124//75
f 110//75 100//75 125//75 126//75
f 127//75 129//75 130//75 128//75
f 117//5 101//5 127//5 128//5
f 100//6 110//6 130//6 129//6
f 101//76 100//76 129//76 127//76
f 45//77 131//77 107//77 104//77
f 131//16 64//16 136//16 107//16
f 134//69 135//69 26//69 118//69
f 132//3 135//3 112//3 115//3
f 133//78 119//78 121//78
f 136//16 64//16 102//16
f 136//3 132//3 115//3 107//3
f 133//79 134//79 118//79 119//79
f 160//80 138//80 198//80
f 175//81 176//81 140//81 137//81
f 188//82 175//82 137//82 163//82
f 176//83 177//83 142//83 140//83
f 178//84 184//84 24//84 22//84
f 185//85 202//85 201//85 184//85
f 197//86 178//86 22//86 32//86
f 177//16 25//16 30//16 179//16
f 140//87 142//87 146//87 145//87
f 137//88 140//88 145//88 144//88
f 163//89 137//89 144//89 165//89
f 186//90 197//90 32//90 60//90
f 189//82 188//82 163//82 170//82
f 169//91 160//91 198//91 168//91
f 164//92 156//92 150//92 203//92
f 180//93 193//93 174//93
f 150//94 152//94 151//94 148//94
f 187//95 181//95 36//95 19//95
f 156//96 154//96 152//96 150//96
f 229//27 230//27 215//27 203//27
f 181//97 183//97 40//97 36//97
f 180//98 182//98 147//98 149//98
f 161//99 159//99 154//99 156//99
f 157//100 161//100 156//100 164//100
f 169//6 173//6 167//6 160//6
f 179//16 30//16 49//16 185//16
f 145//101 146//101 141//101 158//101
f 144//102 145//102 158//102 153//102
f 165//103 144//103 153//103 155//103
f 139//104 149//104 161//104 157//104
f 149//105 147//105 159//105 161//105
f 162//106 218//106 228//106 227//106
f 153//107 158//107 138//107
f 155//108 153//108 138//108 160//108
f 170//109 163//109 165//109 171//109
f 166//5 172//5 155//5
f 172//91 166//91 167//91 173//91
f 170//110 206//110 217//110 218//110 162//110
f 160//16 167//16 166//16 155//16
f 164//111 172//111 173//111 157//111
f 157//6 173//6 169//6 191//6
f 191//91 169//91 168//91 190//91
f 187//82 189//82 170//82 162//82
f 192//112 186//112 60//112 84//112
f 165//113 155//113 235//113 171//113
f 19//82 61//82 189//82 187//82
f 146//16 179//16 185//16 141//16
f 37//114 41//114 182//114 180//114
f 148//115 151//115 183//115 181//115
f 162//116 227//116 148//116 181//116 187//116
f 20//117 37//117 180//117 174//117
f 61//82 33//82 188//82 189//82
f 142//16 177//16 179//16 146//16
f 198//86 138//86 178//86 197//86
f 158//118 141//118 185//118 184//118
f 138//119 158//119 184//119 178//119
f 23//120 25//120 177//120 176//120
f 33//82 21//82 175//82 188//82
f 21//121 23//121 176//121 175//121
f 194//122 149//122 139//122
f 174//112 192//112 84//112 20//112
f 157//91 191//91 190//91 139//91
f 194//123 195//123 196//123 193//123
f 192//16 196//16 199//16
f 190//124 195//124 194//124 139//124
f 174//125 193//125 196//125 192//125
f 194//126 193//126 180//126 149//126
f 200//127 186//127 192//127 199//127
f 168//128 198//128 197//128 200//128
f 200//129 197//129 186//129
f 195//16 190//16 199//16
f 190//130 168//130 200//130 199//130
f 196//16 195//16 199//16
f 201//131 202//131 98//131 96//131
f 49//16 98//16 202//16 185//16
f 184//63 201//63 96//63 24//63
f 211//132 209//132 210//132 220//132 219//132
f 203//65 215//65 210//65 164//65
f 229//133 203//133 150//133 148//133 227//133
f 220//1 230//1 228//1
f 209//132 211//132 208//132
f 206//1 240//1 236//1 217//1
f 215//134 230//134 220//134 210//134
f 164//6 210//6 209//6 172//6
f 214//1 234//1 232//1 221//1
f 172//6 209//6 208//6 155//6
f 206//16 170//16 171//16
f 207//68 223//68 225//68 213//68
f 216//69 226//69 238//69 239//69
f 207//1 218//1 217//1 143//1
f 216//1 219//1 220//1 212//1
f 213//1 228//1 218//1 207//1
f 212//1 220//1 228//1 213//1
f 143//1 217//1 236//1 239//1
f 225//135 237//135 224//135
f 226//136 224//136 237//136 238//136
f 143//72 222//72 223//72 207//72
f 213//73 225//73 224//73 212//73
f 212//74 224//74 226//74 216//74
f 205//75 227//75 228//75 221//75
f 204//75 229//75 227//75 205//75
f 221//75 228//75 230//75 214//75
f 214//75 230//75 229//75 204//75
f 231//75 232//75 234//75 233//75
f 221//5 232//5 231//5 205//5
f 204//6 233//6 234//6 214//6
f 205//137 231//137 233//137 204//137
f 155//77 208//77 211//77 235//77
f 235//16 211//16 240//16 171//16
f 238//69 222//69 143//69 239//69
f 236//1 219//1 216//1 239//1
f 237//138 225//138 223//138
f 240//16 206//16 171//16
f 240//1 211//1 219//1 236//1
f 237//139 223//139 222//139 238//139
f 243//3 242//3 241//3
f 243//140 241//140 250//140 249//140
f 241//16 242//16 246//16 245//16
f 246//141 242//141 248//141
f 252//5 244//5 245//5 253//5
f 243//142 244//142 247//142
f 242//143 243//143 247//143 248//143
f 244//1 246//1 248//1 247//1
f 245//1 244//1 249//1 250//1
f 241//144 245//144 250//144
f 244//145 243//145 249//145
f 245//16 246//16 251//16 253//16
f 244//146 252//146 251//146 246//146
f 256//1 254//1 255//1
f 256//147 262//147 263//147 254//147
f 254//16 258//16 259//16 255//16
f 259//141 261//141 255//141
f 265//5 266//5 258//5 257//5
f 256//142 260//142 257//142
f 255//148 261//148 260//148 256//148
f 257//3 260//3 261//3 259//3
f 258//3 263//3 262//3 257//3
f 254//144 263//144 258//144
f 257//145 262//145 256//145
f 258//16 266//16 264//16 259//16
f 257//146 259//146 264//146 265//146
f 271//149 274//149 270//149 269//149
f 275//3 278//3 268//3 267//3
f 272//150 275//150 267//150
f 278//151 273//151 268//151
f 270//151 274//151 277//151
f 277//151 274//151 273//151 278//151
f 269//150 276//150 271//150
f 271//150 276//150 275//150 272//150
f 269//3 270//3 277//3 276//3
f 276//3 277//3 278//3 275//3
f 267//152 268//152 273//152 272//152
f 272//1 273//1 274//1 271//1
f 279//153 280//153 282//153 281//153
f 281//3 282//3 284//3 283//3
f 283//154 284//154 286//154 285//154
f 285//155 286//155 288//155 287//155
f 287//1 288//1 290//1 289//1
f 289//156 290//156 280//156 279//156
f 295//157 310//157 292//157
f 311//158 326//158 293//158
f 302//5 311//5 293//5 291//5
f 326//159 303//159 291//159 293//159
f 294//160 292//160 310//160 319//160
f 319//6 310//6 309//6 320//6
f 320//6 309//6 308//6 321//6
f 321//6 308//6 307//6 322//6
f 322//6 307//6 306//6 323//6
f 323//6 306//6 305//6 324//6
f 324//6 305//6 304//6 325//6
f 325//6 304//6 303//6 326//6
f 292//5 294//5 318//5 295//5
f 295//5 318//5 317//5 296//5
f 296//5 317//5 316//5 297//5
f 297//5 316//5 315//5 298//5
f 298//5 315//5 314//5 299//5
f 299//5 314//5 313//5 300//5
f 300//5 313//5 312//5 301//5
f 301//5 312//5 311//5 302//5
f 294//158 319//158 318//158
f 318//158 319//158 320//158 317//158
f 317//158 320//158 321//158 316//158
f 316//158 321//158 322//158 315//158
f 315//158 322//158 323//158 314//158
f 314//158 323//158 324//158 313//158
f 313//158 324//158 325//158 312//158
f 312//158 325//158 326//158 311//158
f 291//157 303//157 302//157
f 302//157 303//157 304//157 301//157
f 301//157 304//157 305//157 300//157
f 300//157 305//157 306//157 299//157
f 299//157 306//157 307//157 298//157
f 298//157 307//157 308//157 297//157
f 297//157 308//157 309//157 296//157
f 296//157 309//157 310//157 295//157
